<svg version="1.1" id="Layer_1" xmlns="http://www.w3.org/2000/svg" xmlns:xlink="http://www.w3.org/1999/xlink" x="0px" y="0px" viewBox="0 0 225 85" style="enable-background:new 0 0 225 85;" xml:space="preserve">
<style type="text/css">
	.st0{fill:#00529A;stroke:#00529A;stroke-width:0.4775;stroke-miterlimit:10;}
	.st1{fill:#00529A;}
	.st2{fill:#00529A;stroke:#00529A;stroke-width:0.7802;stroke-miterlimit:10;}
</style>
<g>
	<path class="st0" d="M105.7,23.6H100v5.6h5.6v2.3H100v6.8h-3.4V21.4h9.1V23.6z"></path>
	<path class="st0" d="M111.2,28.3L111.2,28.3l0.7-0.9c0.4-0.5,1.1-1.5,2.1-1.5c0.7,0,1.5,0.4,2.2,1.1l-1.2,2.2
		c-0.5-0.3-0.9-0.4-1.5-0.4c-1.1,0-2.2,0.9-2.2,3.5v6H108V26.2h3.2V28.3z"></path>
	<path class="st0" d="M120,32.5c-0.1,2.3,1.5,4,3.5,4c1.2,0,2.4-0.4,3.2-1l0.9,1.7c-1.6,1-3.4,1.4-4.7,1.4c-3.7,0-6.4-2.6-6.4-6.6
		c0-3.7,2.7-6.1,6.2-6.1c3.8,0,5.3,3,5.1,6.6H120z M124.8,30.8c0.1-1.8-0.5-3.1-2.1-3.1c-1.8,0-2.7,1.5-2.6,3.1H124.8z"></path>
	<path class="st0" d="M132.8,32.5c-0.1,2.3,1.5,4,3.5,4c1.2,0,2.4-0.4,3.2-1l0.9,1.7c-1.6,1-3.4,1.4-4.7,1.4c-3.7,0-6.4-2.6-6.4-6.6
		c0-3.7,2.7-6.1,6.2-6.1c3.8,0,5.3,3,5.1,6.6H132.8z M137.6,30.8c0.1-1.8-0.5-3.1-2.1-3.1c-1.8,0-2.7,1.5-2.6,3.1H137.6z"></path>
	<path class="st0" d="M151.3,36.6L151.3,36.6c-0.8,1-2.1,2-4,2c-3.2,0-5.3-2.6-5.3-6.5c0-3.1,2.3-6.2,5.5-6.2c1.6,0,3,0.6,3.7,1.7h0
		v-7.1h3.2v17.8h-3.2V36.6z M145.5,32c0,2.3,0.9,4.6,2.8,4.6c2.2,0,3.1-2.3,3.1-4.7c0-2.1-1-4.1-2.9-4.1
		C146.3,27.8,145.5,29.7,145.5,32z"></path>
	<path class="st0" d="M156.7,32.1c0-3.9,3.1-6.2,6.3-6.2c3.3,0,6.4,2.3,6.4,6.2c0,3.7-2.6,6.5-6.4,6.5
		C159.2,38.6,156.7,35.9,156.7,32.1z M166,32.1c0-2-0.7-4.4-3-4.4c-2.2,0-2.9,2.4-2.9,4.4c0,2.1,0.6,4.7,2.9,4.7
		C165.4,36.8,166,34.2,166,32.1z"></path>
	<path class="st0" d="M174.7,27.6L174.7,27.6c0.9-1.1,2.4-1.7,3.9-1.7c1.5,0,2.8,0.6,3.6,1.7c1-1,2.6-1.7,4-1.7
		c2.7,0,4.2,1.6,4.2,4.4v7.9h-3.2v-7.4c0-1.4-0.5-2.9-2.1-2.9c-1.5,0-2.5,0.9-2.5,3v7.2h-3.2v-7.4c0-1.7-0.7-2.9-2.1-2.9
		c-1.5,0-2.5,1-2.5,3.1v7.1h-3.2V26.2h3.2V27.6z"></path>
	<path class="st0" d="M199.8,34.9c1.1,0.7,2.3,1.5,3.8,1.5c2.4,0,3.5-1.6,3.5-3.1c0-2.4-2.9-4.1-6.9-4.1l1.9-7.7h8l-0.7,2.3h-5.1
		l-0.8,3.2c5.7,1,7.1,3.8,7.1,6.2c0,3-2.9,5.5-6.8,5.5c-1.5,0-3.3-0.3-5.1-1.6L199.8,34.9z"></path>
	<path class="st0" d="M213.2,34.9c1.1,0.7,2.3,1.5,3.8,1.5c2.4,0,3.5-1.6,3.5-3.1c0-2.4-2.9-4.1-6.9-4.1l1.9-7.7h8l-0.7,2.3h-5.1
		l-0.8,3.2c5.7,1,7.1,3.8,7.1,6.2c0,3-2.9,5.5-6.8,5.5c-1.5,0-3.3-0.3-5.1-1.6L213.2,34.9z"></path>
	<path class="st0" d="M92.5,47.8h-5.7v5.6h5.6v2.3h-5.6v6.8h-3.4V45.6h9.1V47.8z"></path>
	<path class="st0" d="M94.7,46.8c0-0.9,0.8-1.9,1.9-1.9c1.1,0,2,0.9,2,1.9c0,1-0.7,2-1.9,2C95.5,48.8,94.7,47.8,94.7,46.8z
		 M98.2,50.4v12.1H95V50.4H98.2z"></path>
	<path class="st0" d="M104.3,51.8c1.1-1.2,2.6-1.7,4.1-1.7c2.8,0,4.3,1.5,4.3,4.6v7.8h-3.2v-7.4c0-1.7-0.8-2.8-2.4-2.8
		c-1.6,0-2.8,1-2.8,3v7.2h-3.2V50.4h3.2V51.8z"></path>
	<path class="st0" d="M121.7,61.3c-0.9,0.7-2,1.5-3.1,1.5c-1.9,0-3.5-1.5-3.5-3.7c0-2.3,1.7-3.6,4.5-4.4l2.9-0.8
		c-0.2-1.1-1.2-1.8-2.2-1.8c-1.4,0-2.3,0.5-3.2,1.2l-1-1.5c1.5-1.2,3-1.6,4.6-1.6c2.2,0,5,0.7,5,4.5v4.9c0,1,0.1,2.1,0.5,3h-3.4
		c-0.2-0.4-0.3-1.1-0.3-1.8L121.7,61.3z M120.7,56.1c-1.6,0.5-2.4,1.4-2.4,2.8c0,1.1,0.7,1.8,1.5,1.8c1.3,0,3-1.6,2.7-5.2
		L120.7,56.1z"></path>
	<path class="st0" d="M131.6,51.8c1.1-1.2,2.6-1.7,4.1-1.7c2.8,0,4.3,1.5,4.3,4.6v7.8h-3.2v-7.4c0-1.7-0.7-2.8-2.4-2.8
		c-1.6,0-2.8,1-2.8,3v7.2h-3.2V50.4h3.2V51.8z"></path>
	<path class="st0" d="M152.4,61.8c-1,0.6-2.3,0.9-3.4,0.9c-5,0-6.7-3.8-6.7-6.3c0-3.4,2.6-6.4,6.8-6.4c1,0,2.2,0.2,3.1,0.8l-0.8,1.9
		c-0.3-0.1-0.7-0.3-1.1-0.4c-0.4-0.1-0.7-0.1-1.1-0.1c-1.8,0-3.7,1.2-3.7,4c0,2.4,1.4,4.3,3.7,4.3c0.7,0,1.6-0.2,2.4-0.6L152.4,61.8
		z"></path>
	<path class="st0" d="M153.9,46.8c0-0.9,0.8-1.9,1.9-1.9c1.1,0,2,0.9,2,1.9c0,1-0.7,2-1.9,2C154.6,48.8,153.9,47.8,153.9,46.8z
		 M157.4,50.4v12.1h-3.2V50.4H157.4z"></path>
	<path class="st0" d="M166.3,61.3c-0.9,0.7-2,1.5-3.1,1.5c-1.9,0-3.5-1.5-3.5-3.7c0-2.3,1.7-3.6,4.5-4.4l2.9-0.8
		c-0.2-1.1-1.2-1.8-2.2-1.8c-1.4,0-2.3,0.5-3.2,1.2l-1-1.5c1.5-1.2,3-1.6,4.6-1.6c2.2,0,5,0.7,5,4.5v4.9c0,1,0.1,2.1,0.5,3h-3.4
		c-0.2-0.4-0.3-1.1-0.3-1.8L166.3,61.3z M165.2,56.1c-1.6,0.5-2.4,1.4-2.4,2.8c0,1.1,0.7,1.8,1.5,1.8c1.3,0,3-1.6,2.7-5.2
		L165.2,56.1z"></path>
	<path class="st0" d="M173,62.5V44.7h3.2v17.8H173z"></path>
	<path class="st1" d="M179.5,49.1v-4.1H178v-0.7h4.2v0.7h-1.5v4.1H179.5z M188.8,49.1h-1.2v-3.3h0l-1.5,3.3h-0.7l-1.5-3.3h0v3.3
		h-0.9v-4.8h1.5l1.4,3.2l1.5-3.2h1.4V49.1z"></path>
	<g>
		<g>
			<g>
				<path class="st2" d="M46.2,29.4c-2.1-1.7-4.2-2.5-11.5-2.1c-5.9,0.3-8,0.5-11.5,0.5c-6.2,0-10.6-0.4-14.5-0.9l3.2,5.6
					c1.9,0.3,3.9,0.5,6.1,0.7c4.7,0.3,8.7,0.4,12.7,0.2c1-0.1,3.7-0.1,3.7-0.1c7.8-0.6,9.8,2.6,10.7,4c1.3,2.2,1.2,3.6,1.3,3.5
					c0,0-0.1,0.5,1.6-2.5C49.7,35.2,48.3,31.1,46.2,29.4z"></path>
				<path class="st2" d="M46.4,41L46.4,41L46.4,41l-0.1,0h-0.1l0-0.1l0-0.1l0,0c0-0.5-0.2-1.7-1.2-3.4c-0.7-1.2-2.4-4-8.6-4
					c-0.6,0-1.3,0-1.9,0.1c0,0-2.8,0.1-3.7,0.1c-1.7,0.1-3.3,0.1-5,0.1c-2.5,0-5-0.1-7.7-0.3c-2-0.1-4.1-0.4-6.2-0.7l-0.1,0l-3.4-6
					l0.3,0c4.2,0.6,8.7,0.9,14.5,0.9c3,0,4.9-0.1,9-0.3c0.8,0,1.6-0.1,2.6-0.1c1.3-0.1,2.4-0.1,3.4-0.1c4.6,0,6.3,0.7,8.2,2.2
					c2.2,1.8,3.5,5.9,1.8,9c-1.1,2-1.4,2.5-1.6,2.6l0,0L46.4,41C46.5,41,46.5,41,46.4,41z M36.4,33c6.3,0,8.1,2.9,8.9,4.2
					c0.9,1.5,1.2,2.6,1.3,3.2c0.2-0.3,0.6-0.9,1.3-2.3c1.6-2.9,0.4-6.9-1.7-8.6c-1.8-1.4-3.5-2.1-8-2.1c-1,0-2.1,0-3.4,0.1
					c-0.9,0.1-1.8,0.1-2.6,0.1c-4.1,0.2-6,0.4-9,0.3c-5.7,0-10.1-0.3-14.2-0.9l3,5.3c2.1,0.3,4.1,0.5,6.1,0.7
					c2.7,0.2,5.3,0.3,7.7,0.3c1.7,0,3.3,0,4.9-0.1c0.9-0.1,3.7-0.1,3.7-0.1C35.2,33,35.8,33,36.4,33z"></path>
			</g>
		</g>
		<g>
			<g>
				<path class="st2" d="M40.6,41.6c-1.4-1.1-2.6-1.9-9.3-1.6c-6.4,0.3-9,0.1-15.4-0.5l3.2,5.5c4.2,0.5,8.7,0.5,11.3,0.4
					c5.2-0.3,6.9,1.4,7.7,2c2.1,1.7,2.3,3.8,2.3,3.9c0.4-0.6,1.5-2.5,1.5-2.5C43.3,46.2,42.6,43.2,40.6,41.6z"></path>
				<path class="st2" d="M40.2,51.9l0-0.6c0,0-0.2-2.1-2.2-3.8l-0.1-0.1c-0.8-0.7-2.2-1.9-6.2-1.9c-0.4,0-0.8,0-1.2,0
					c-1,0.1-2.1,0.1-3.3,0.1c-1.9,0-4.9-0.1-8-0.5l-0.1,0l-3.4-5.8l0.3,0C20.5,39.8,23,40,26.3,40c1.4,0,3,0,5-0.1
					c0.9,0,1.7-0.1,2.4-0.1c4.5,0,5.6,0.7,6.9,1.7c2.2,1.7,2.7,4.8,1.3,7.4c-0.1,0.1-0.2,0.4-0.6,1.1c-0.3,0.6-0.7,1.2-0.9,1.5
					L40.2,51.9z M31.7,45.2c4.1,0,5.7,1.4,6.4,2l0.1,0.1c1.5,1.3,2.1,2.8,2.3,3.6c0.4-0.7,1-1.7,1.2-2l0,0l0.1-0.1
					c1.3-2.4,0.8-5.4-1.2-7c-1.3-1-2.3-1.6-6.7-1.6c-0.7,0-1.5,0-2.4,0.1c-2,0.1-3.6,0.1-5,0.1c-3.2,0-5.8-0.2-10.1-0.6l3,5.2
					c3.1,0.4,6,0.4,7.9,0.4c1.2,0,2.3,0,3.3-0.1C30.9,45.2,31.3,45.2,31.7,45.2z"></path>
			</g>
		</g>
		<g>
			<g>
				<path class="st2" d="M60.6,8.7c-2.8,1.9-4.6,4.1-6,6.5c-0.3,0.6-0.9,1.8-1.3,2.6c-0.2,0.5-0.2,1.1-0.2,1.1s0-0.4-0.3-1.1
					c-0.4-0.8-1.7-1.7-3.1-2.3c-3.1-1.2-7.4-1-11.2-0.8c-5.6,0.3-10.1,0.7-16.8,0.9c-4.9,0.1-15-0.1-20.4-1.3l3.3,5.7
					c3.5,0.7,4.5,0.8,6.8,1c3.6,0.3,7.4,0.6,11.9,0.6c5.2-0.1,9.8-0.4,15.3-0.7c7-0.4,10.2,1.5,12,3.9c2.4,3.2,2,5.1,2.2,5.2
					l0.8-1.4c3.9-6.7,4.7-12.1,9.7-15.7c2.4-1.7,4.5-2.5,8.1-2.1c-2.7,2-3.4,4.9-3.4,8.6c0,1.1,0,5.3,0,5.3
					c0.1,10-1.4,15.5-11.4,25.1c0,0-4.7,4.5-7.6,7.8c-2.8,3.2-4.8,6.1-6.9,9.8c-1,1.6-1.7,3.4-1.7,5.8l0,5.3
					c8.1-15,19.7-24.2,20.6-24.9c11.8-10.5,12.4-17.5,12.4-28.9c0-1.6,0.1-3.6,0.1-5.9c0-6.1,2.4-7.8,4.9-9.7
					C72.1,5.4,65,5.6,60.6,8.7z"></path>
				<path class="st2" d="M40.2,78.9l0-5.9c0-2.7,0.9-4.5,1.7-5.9c2.2-3.7,4.2-6.6,7-9.8c2.9-3.2,7.6-7.7,7.6-7.8
					c9.7-9.4,11.4-14.7,11.3-25c0,0,0-4.2,0-5.3c0-3,0.4-6.3,3.1-8.4c-3.5-0.3-5.5,0.7-7.6,2.2c-3.2,2.4-4.7,5.6-6.4,9.3
					c-0.9,1.9-1.9,4.1-3.2,6.4l-0.9,1.6L52.7,30c-0.1-0.1-0.1-0.2-0.1-0.4c-0.1-0.6-0.2-2.3-2.1-4.9c-2.2-2.9-6-4.1-11.9-3.8
					c-1.1,0.1-2.2,0.1-3.3,0.2c-4.1,0.2-7.9,0.4-12.1,0.5c-4.1,0.1-7.6-0.2-11-0.5L11.4,21c-2.3-0.2-3.3-0.3-6.8-1l-0.1,0L1,14
					l0.4,0.1c5.3,1.1,15.2,1.4,20.3,1.3c4.2-0.1,7.5-0.3,10.8-0.5c1.9-0.1,3.9-0.2,6-0.3c1.4-0.1,2.9-0.1,4.3-0.1c3,0,5.2,0.3,6.9,1
					c1.5,0.6,2.8,1.5,3.2,2.3c0.1,0.1,0.1,0.2,0.2,0.4c0-0.1,0.1-0.2,0.1-0.3c0.4-0.9,1.1-2.2,1.3-2.6c1.5-2.7,3.4-4.7,6-6.5
					c2.3-1.5,5.2-2.4,8.4-2.4c3.3,0,6.6,0.9,9.5,2.5l0.2,0.1l-0.4,0.3c-2.3,1.8-4.5,3.6-4.6,9.4c0,1.3,0,2.5,0,3.5
					c0,0.8,0,1.6,0,2.3c-0.1,11.5-0.7,18.5-12.5,29.1c-0.1,0.1-0.2,0.1-0.3,0.3c-8.2,6.9-15.4,15.6-20.2,24.6L40.2,78.9z M69.8,10.4
					c0.5,0,1,0,1.6,0.1l0.4,0l-0.3,0.2c-2.9,2.1-3.3,5.4-3.3,8.4c0,1.1,0,5.3,0,5.3c0.1,10.4-1.6,15.7-11.4,25.2
					c0,0-4.7,4.5-7.6,7.8c-2.8,3.1-4.7,6.1-6.9,9.8c-0.8,1.4-1.7,3.1-1.7,5.8l0,4.7c4.9-8.8,11.9-17.4,20-24.1
					c0.2-0.1,0.3-0.2,0.3-0.3c11.7-10.4,12.3-17.4,12.4-28.8c0-0.7,0-1.5,0-2.3c0-1.1,0-2.3,0-3.5c0-6,2.3-7.8,4.7-9.7l0,0
					c-2.9-1.5-6-2.4-9.2-2.4c-3.1,0-6,0.8-8.2,2.3c-2.6,1.8-4.5,3.8-5.9,6.4c-0.2,0.4-0.9,1.7-1.3,2.6c-0.2,0.5-0.2,1-0.2,1l-0.3,0
					c0,0,0-0.4-0.3-1c-0.4-0.7-1.7-1.6-3.1-2.2c-1.7-0.7-3.8-1-6.8-1c-1.4,0-2.9,0.1-4.3,0.1c-2.1,0.1-4.1,0.2-6,0.3
					c-3.3,0.2-6.6,0.4-10.8,0.5c-5.1,0.1-14.7-0.1-20-1.2l3.1,5.3c3.4,0.7,4.4,0.8,6.7,1l0.9,0.1c3.3,0.3,6.8,0.6,11,0.5
					c4.1-0.1,8-0.3,12.1-0.5c1.1-0.1,2.1-0.1,3.3-0.2c6-0.3,9.9,0.9,12.2,4c1.8,2.4,2.1,4,2.1,4.8l0.6-1c1.3-2.3,2.3-4.4,3.2-6.3
					c1.7-3.7,3.2-7,6.5-9.4C65,11.3,66.9,10.4,69.8,10.4z"></path>
			</g>
		</g>
	</g>
</g>
</svg>